<?xml version="1.0" encoding="utf-8" standalone="no"?>
<!DOCTYPE svg PUBLIC "-//W3C//DTD SVG 1.1//EN"
  "http://www.w3.org/Graphics/SVG/1.1/DTD/svg11.dtd">
<svg xmlns:xlink="http://www.w3.org/1999/xlink" width="432pt" height="288pt" viewBox="0 0 432 288" xmlns="http://www.w3.org/2000/svg" version="1.1">
 <metadata>
  <rdf:RDF xmlns:dc="http://purl.org/dc/elements/1.1/" xmlns:cc="http://creativecommons.org/ns#" xmlns:rdf="http://www.w3.org/1999/02/22-rdf-syntax-ns#">
   <cc:Work>
    <dc:type rdf:resource="http://purl.org/dc/dcmitype/StillImage"/>
    <dc:date>2022-10-28T10:41:00.590173</dc:date>
    <dc:format>image/svg+xml</dc:format>
    <dc:creator>
     <cc:Agent>
      <dc:title>Matplotlib v3.5.2, https://matplotlib.org/</dc:title>
     </cc:Agent>
    </dc:creator>
   </cc:Work>
  </rdf:RDF>
 </metadata>
 <defs>
  <style type="text/css">*{stroke-linejoin: round; stroke-linecap: butt}</style>
 </defs>
 <g id="figure_1">
  <g id="patch_1">
   <path d="M 0 288 
L 432 288 
L 432 0 
L 0 0 
L 0 288 
z
" style="fill: none"/>
  </g>
  <g id="axes_1">
   <g id="patch_2">
    <path d="M 54 252 
L 388.8 252 
L 388.8 34.56 
L 54 34.56 
z
" style="fill: #ffffff"/>
   </g>
   <g id="patch_3">
    <path d="M 70.74 252 
L 76.32 252 
L 76.32 179.242211 
L 70.74 179.242211 
z
" clip-path="url(#p9cb72e499b)" style="fill: #1f77b4"/>
   </g>
   <g id="patch_4">
    <path d="M 137.7 252 
L 143.28 252 
L 143.28 173.769787 
L 137.7 173.769787 
z
" clip-path="url(#p9cb72e499b)" style="fill: #1f77b4"/>
   </g>
   <g id="patch_5">
    <path d="M 204.66 252 
L 210.24 252 
L 210.24 137.827268 
L 204.66 137.827268 
z
" clip-path="url(#p9cb72e499b)" style="fill: #1f77b4"/>
   </g>
   <g id="patch_6">
    <path d="M 271.62 252 
L 277.2 252 
L 277.2 252 
L 271.62 252 
z
" clip-path="url(#p9cb72e499b)" style="fill: #1f77b4"/>
   </g>
   <g id="patch_7">
    <path d="M 338.58 252 
L 344.16 252 
L 344.16 152.899576 
L 338.58 152.899576 
z
" clip-path="url(#p9cb72e499b)" style="fill: #1f77b4"/>
   </g>
   <g id="patch_8">
    <path d="M 76.32 252 
L 81.9 252 
L 81.9 120.183588 
L 76.32 120.183588 
z
" clip-path="url(#p9cb72e499b)" style="fill: #ff7f0e"/>
   </g>
   <g id="patch_9">
    <path d="M 143.28 252 
L 148.86 252 
L 148.86 98.95361 
L 143.28 98.95361 
z
" clip-path="url(#p9cb72e499b)" style="fill: #ff7f0e"/>
   </g>
   <g id="patch_10">
    <path d="M 210.24 252 
L 215.82 252 
L 215.82 64.59924 
L 210.24 64.59924 
z
" clip-path="url(#p9cb72e499b)" style="fill: #ff7f0e"/>
   </g>
   <g id="patch_11">
    <path d="M 277.2 252 
L 282.78 252 
L 282.78 44.914286 
L 277.2 44.914286 
z
" clip-path="url(#p9cb72e499b)" style="fill: #ff7f0e"/>
   </g>
   <g id="patch_12">
    <path d="M 344.16 252 
L 349.74 252 
L 349.74 60.907044 
L 344.16 60.907044 
z
" clip-path="url(#p9cb72e499b)" style="fill: #ff7f0e"/>
   </g>
   <g id="patch_13">
    <path d="M 81.9 252 
L 87.48 252 
L 87.48 77.107324 
L 81.9 77.107324 
z
" clip-path="url(#p9cb72e499b)" style="fill: #2ca02c"/>
   </g>
   <g id="patch_14">
    <path d="M 148.86 252 
L 154.44 252 
L 154.44 64.910787 
L 148.86 64.910787 
z
" clip-path="url(#p9cb72e499b)" style="fill: #2ca02c"/>
   </g>
   <g id="patch_15">
    <path d="M 215.82 252 
L 221.4 252 
L 221.4 44.914286 
L 215.82 44.914286 
z
" clip-path="url(#p9cb72e499b)" style="fill: #2ca02c"/>
   </g>
   <g id="patch_16">
    <path d="M 282.78 252 
L 288.36 252 
L 288.36 52.879121 
L 282.78 52.879121 
z
" clip-path="url(#p9cb72e499b)" style="fill: #2ca02c"/>
   </g>
   <g id="patch_17">
    <path d="M 349.74 252 
L 355.32 252 
L 355.32 44.914286 
L 349.74 44.914286 
z
" clip-path="url(#p9cb72e499b)" style="fill: #2ca02c"/>
   </g>
   <g id="patch_18">
    <path d="M 87.48 252 
L 93.06 252 
L 93.06 73.225894 
L 87.48 73.225894 
z
" clip-path="url(#p9cb72e499b)" style="fill: #d62728"/>
   </g>
   <g id="patch_19">
    <path d="M 154.44 252 
L 160.02 252 
L 160.02 61.301662 
L 154.44 61.301662 
z
" clip-path="url(#p9cb72e499b)" style="fill: #d62728"/>
   </g>
   <g id="patch_20">
    <path d="M 221.4 252 
L 226.98 252 
L 226.98 51.213471 
L 221.4 51.213471 
z
" clip-path="url(#p9cb72e499b)" style="fill: #d62728"/>
   </g>
   <g id="patch_21">
    <path d="M 288.36 252 
L 293.94 252 
L 293.94 124.562637 
L 288.36 124.562637 
z
" clip-path="url(#p9cb72e499b)" style="fill: #d62728"/>
   </g>
   <g id="patch_22">
    <path d="M 355.32 252 
L 360.9 252 
L 360.9 60.223593 
L 355.32 60.223593 
z
" clip-path="url(#p9cb72e499b)" style="fill: #d62728"/>
   </g>
   <g id="patch_23">
    <path d="M 93.06 252 
L 98.64 252 
L 98.64 49.937313 
L 93.06 49.937313 
z
" clip-path="url(#p9cb72e499b)" style="fill: #9467bd"/>
   </g>
   <g id="patch_24">
    <path d="M 160.02 252 
L 165.6 252 
L 165.6 49.01113 
L 160.02 49.01113 
z
" clip-path="url(#p9cb72e499b)" style="fill: #9467bd"/>
   </g>
   <g id="patch_25">
    <path d="M 226.98 252 
L 232.56 252 
L 232.56 50.111114 
L 226.98 50.111114 
z
" clip-path="url(#p9cb72e499b)" style="fill: #9467bd"/>
   </g>
   <g id="patch_26">
    <path d="M 293.94 252 
L 299.52 252 
L 299.52 252 
L 293.94 252 
z
" clip-path="url(#p9cb72e499b)" style="fill: #9467bd"/>
   </g>
   <g id="patch_27">
    <path d="M 360.9 252 
L 366.48 252 
L 366.48 76.763112 
L 360.9 76.763112 
z
" clip-path="url(#p9cb72e499b)" style="fill: #9467bd"/>
   </g>
   <g id="patch_28">
    <path d="M 98.64 252 
L 104.22 252 
L 104.22 44.914286 
L 98.64 44.914286 
z
" clip-path="url(#p9cb72e499b)" style="fill: #8c564b"/>
   </g>
   <g id="patch_29">
    <path d="M 165.6 252 
L 171.18 252 
L 171.18 44.914286 
L 165.6 44.914286 
z
" clip-path="url(#p9cb72e499b)" style="fill: #8c564b"/>
   </g>
   <g id="patch_30">
    <path d="M 232.56 252 
L 238.14 252 
L 238.14 48.221358 
L 232.56 48.221358 
z
" clip-path="url(#p9cb72e499b)" style="fill: #8c564b"/>
   </g>
   <g id="patch_31">
    <path d="M 299.52 252 
L 305.1 252 
L 305.1 252 
L 299.52 252 
z
" clip-path="url(#p9cb72e499b)" style="fill: #8c564b"/>
   </g>
   <g id="patch_32">
    <path d="M 366.48 252 
L 372.06 252 
L 372.06 75.122829 
L 366.48 75.122829 
z
" clip-path="url(#p9cb72e499b)" style="fill: #8c564b"/>
   </g>
   <g id="matplotlib.axis_1">
    <g id="xtick_1">
     <g id="line2d_1">
      <defs>
       <path id="m4e71779733" d="M 0 0 
L 0 3.5 
" style="stroke: #000000; stroke-width: 0.8"/>
      </defs>
      <g>
       <use xlink:href="#m4e71779733" x="87.48" y="252" style="stroke: #000000; stroke-width: 0.8"/>
      </g>
     </g>
     <g id="text_1">
      <text style="font: 10px 'sans-serif'" transform="translate(90.239375 308.207812)rotate(-90)">reactions </text>
     </g>
    </g>
    <g id="xtick_2">
     <g id="line2d_2">
      <g>
       <use xlink:href="#m4e71779733" x="154.44" y="252" style="stroke: #000000; stroke-width: 0.8"/>
      </g>
     </g>
     <g id="text_2">
      <text style="font: 10px 'sans-serif'" transform="translate(157.199375 318.248438)rotate(-90)">metabolites</text>
     </g>
    </g>
    <g id="xtick_3">
     <g id="line2d_3">
      <g>
       <use xlink:href="#m4e71779733" x="221.4" y="252" style="stroke: #000000; stroke-width: 0.8"/>
      </g>
     </g>
     <g id="text_3">
      <text style="font: 10px 'sans-serif'" transform="translate(224.159375 366.998438)rotate(-90)">microorganism genes</text>
     </g>
    </g>
    <g id="xtick_4">
     <g id="line2d_4">
      <g>
       <use xlink:href="#m4e71779733" x="288.36" y="252" style="stroke: #000000; stroke-width: 0.8"/>
      </g>
     </g>
     <g id="text_4">
      <text style="font: 10px 'sans-serif'" transform="translate(291.119375 306.904688)rotate(-90)">exogenes</text>
     </g>
    </g>
    <g id="xtick_5">
     <g id="line2d_5">
      <g>
       <use xlink:href="#m4e71779733" x="355.32" y="252" style="stroke: #000000; stroke-width: 0.8"/>
      </g>
     </g>
     <g id="text_5">
      <text style="font: 10px 'sans-serif'" transform="translate(358.079375 281.865625)rotate(-90)">total</text>
     </g>
    </g>
   </g>
   <g id="matplotlib.axis_2">
    <g id="ytick_1">
     <g id="line2d_6">
      <defs>
       <path id="m6ef9ccd81e" d="M 0 0 
L -3.5 0 
" style="stroke: #000000; stroke-width: 0.8"/>
      </defs>
      <g>
       <use xlink:href="#m6ef9ccd81e" x="54" y="252" style="stroke: #000000; stroke-width: 0.8"/>
      </g>
     </g>
     <g id="text_6">
      <text style="font: 10px 'sans-serif'; text-anchor: end" x="47" y="255.799219" transform="rotate(-0, 47, 255.799219)">0.0</text>
     </g>
    </g>
    <g id="ytick_2">
     <g id="line2d_7">
      <g>
       <use xlink:href="#m6ef9ccd81e" x="54" y="210.582857" style="stroke: #000000; stroke-width: 0.8"/>
      </g>
     </g>
     <g id="text_7">
      <text style="font: 10px 'sans-serif'; text-anchor: end" x="47" y="214.382076" transform="rotate(-0, 47, 214.382076)">0.2</text>
     </g>
    </g>
    <g id="ytick_3">
     <g id="line2d_8">
      <g>
       <use xlink:href="#m6ef9ccd81e" x="54" y="169.165714" style="stroke: #000000; stroke-width: 0.8"/>
      </g>
     </g>
     <g id="text_8">
      <text style="font: 10px 'sans-serif'; text-anchor: end" x="47" y="172.964933" transform="rotate(-0, 47, 172.964933)">0.4</text>
     </g>
    </g>
    <g id="ytick_4">
     <g id="line2d_9">
      <g>
       <use xlink:href="#m6ef9ccd81e" x="54" y="127.748571" style="stroke: #000000; stroke-width: 0.8"/>
      </g>
     </g>
     <g id="text_9">
      <text style="font: 10px 'sans-serif'; text-anchor: end" x="47" y="131.54779" transform="rotate(-0, 47, 131.54779)">0.6</text>
     </g>
    </g>
    <g id="ytick_5">
     <g id="line2d_10">
      <g>
       <use xlink:href="#m6ef9ccd81e" x="54" y="86.331429" style="stroke: #000000; stroke-width: 0.8"/>
      </g>
     </g>
     <g id="text_10">
      <text style="font: 10px 'sans-serif'; text-anchor: end" x="47" y="90.130647" transform="rotate(-0, 47, 90.130647)">0.8</text>
     </g>
    </g>
    <g id="ytick_6">
     <g id="line2d_11">
      <g>
       <use xlink:href="#m6ef9ccd81e" x="54" y="44.914286" style="stroke: #000000; stroke-width: 0.8"/>
      </g>
     </g>
     <g id="text_11">
      <text style="font: 10px 'sans-serif'; text-anchor: end" x="47" y="48.713504" transform="rotate(-0, 47, 48.713504)">1.0</text>
     </g>
    </g>
   </g>
   <g id="patch_33">
    <path d="M 54 252 
L 54 34.56 
" style="fill: none; stroke: #000000; stroke-width: 0.8; stroke-linejoin: miter; stroke-linecap: square"/>
   </g>
   <g id="patch_34">
    <path d="M 388.8 252 
L 388.8 34.56 
" style="fill: none; stroke: #000000; stroke-width: 0.8; stroke-linejoin: miter; stroke-linecap: square"/>
   </g>
   <g id="patch_35">
    <path d="M 54 252 
L 388.8 252 
" style="fill: none; stroke: #000000; stroke-width: 0.8; stroke-linejoin: miter; stroke-linecap: square"/>
   </g>
   <g id="patch_36">
    <path d="M 54 34.56 
L 388.8 34.56 
" style="fill: none; stroke: #000000; stroke-width: 0.8; stroke-linejoin: miter; stroke-linecap: square"/>
   </g>
  </g>
 </g>
 <defs>
  <clipPath id="p9cb72e499b">
   <rect x="54" y="34.56" width="334.8" height="217.44"/>
  </clipPath>
 </defs>
</svg>
